<svg width="44" height="44" viewBox="0 0 44 44" fill="none" xmlns="http://www.w3.org/2000/svg">
<rect x="0.5" y="0.5" width="43" height="43" rx="1.5" fill="white" stroke="#E5E6E6"/>
<g clip-path="url(#clip0_2_231)">
<path d="M33.875 21.8969C33.875 28.5297 29.3328 33.25 22.625 33.25C16.1938 33.25 11 28.0562 11 21.625C11 15.1938 16.1938 10 22.625 10C25.7563 10 28.3906 11.1484 30.4203 13.0422L27.2563 16.0844C23.1172 12.0906 15.4203 15.0906 15.4203 21.625C15.4203 25.6797 18.6594 28.9656 22.625 28.9656C27.2281 28.9656 28.9531 25.6656 29.225 23.9547H22.625V19.9562H33.6922C33.8 20.5516 33.875 21.1234 33.875 21.8969Z" fill="#DB4A39"/>
</g>
<defs>
<clipPath id="clip0_2_231">
<rect width="22.875" height="24" fill="white" transform="translate(11 10)"/>
</clipPath>
</defs>
</svg>
