<svg width="44" height="44" viewBox="0 0 44 44" fill="none" xmlns="http://www.w3.org/2000/svg">
<rect x="0.5" y="0.5" width="43" height="43" rx="1.5" fill="white" stroke="#E5E6E6"/>
<path d="M16.2226 33.0782H11.6296V18.2875H16.2226V33.0782ZM13.9236 16.2699C12.4549 16.2699 11.2637 15.0534 11.2637 13.5847C11.2637 12.8793 11.5439 12.2027 12.0428 11.7039C12.5416 11.205 13.2182 10.9248 13.9236 10.9248C14.6291 10.9248 15.3056 11.205 15.8045 11.7039C16.3033 12.2027 16.5836 12.8793 16.5836 13.5847C16.5836 15.0534 15.3918 16.2699 13.9236 16.2699ZM33.4126 33.0782H28.8295V25.8782C28.8295 24.1622 28.7949 21.9617 26.4415 21.9617C24.0536 21.9617 23.6876 23.826 23.6876 25.7545V33.0782H19.0996V18.2875H23.5047V20.3051H23.5689C24.1821 19.143 25.68 17.9166 27.9147 17.9166C32.563 17.9166 33.4175 20.9776 33.4175 24.9534V33.0782H33.4126Z" fill="#0077B5"/>
</svg>
