<svg width="124" height="108" viewBox="0 0 124 108" fill="none" xmlns="http://www.w3.org/2000/svg">
<g clip-path="url(#clip0_2_100)">
<path d="M41.923 0.355741C47.1225 0.571041 52.3166 0.474156 57.5108 0.280385C58.6734 0.237325 59.836 0.145823 60.9932 0.03279C61.4077 -0.01027 61.6338 0.0274075 61.5584 0.501068C61.5476 0.560276 61.5584 0.619483 61.5584 0.678691C61.553 1.42686 61.7898 2.30421 61.4723 2.88552C61.1386 3.49912 60.1374 3.29459 59.4323 3.45068C53.1671 4.81246 48.2528 8.27879 44.3559 13.2361C35.9 23.9849 27.4979 34.7769 19.0528 45.5365C18.6437 46.0532 18.8967 46.3008 19.1604 46.6668C28.0631 59.1273 36.9604 71.5878 45.8576 84.0483C48.7211 88.0583 51.6169 92.0414 54.4266 96.0836C57.4892 100.497 61.623 103.323 66.7956 104.653C67.3446 104.793 67.533 104.997 67.4899 105.546C67.4307 106.316 67.716 107.312 67.3338 107.791C66.9678 108.248 65.9451 107.801 65.2131 107.769C58.8833 107.478 52.5535 107.451 46.2183 107.5C42.2783 107.527 38.3383 107.618 34.409 107.92C33.6609 107.979 33.3002 107.866 33.4133 107.01C33.5048 106.337 33.2141 105.465 33.5425 105.008C33.8869 104.529 34.8181 104.776 35.4855 104.674C36.6912 104.486 37.9077 104.297 39.0111 103.738C40.3729 103.049 40.7766 102.08 40.3083 100.626C40.0391 99.7976 39.6139 99.0494 39.1349 98.3228C31.3841 86.6373 23.6279 74.9519 15.8717 63.2719C14.6499 61.4311 13.315 59.6764 11.851 58.0078C9.45575 55.2788 6.43078 53.8848 2.8568 53.5834C2.11401 53.5242 1.37123 53.4326 0.623061 53.4111C0.208608 53.4004 0.0686626 53.2981 0.0417501 52.8567C-0.103578 50.3377 -0.114342 50.3539 2.32931 50.1547C8.47075 49.6649 13.638 47.0974 17.5026 42.3447C23.4234 35.0729 29.2257 27.7043 34.8773 20.2172C36.7289 17.7628 38.3652 15.163 39.5493 12.3049C39.9961 11.2284 40.3459 10.1196 40.3998 8.94084C40.502 6.72863 39.5547 5.15694 37.5309 4.24191C35.8139 3.46683 33.9892 3.18694 32.1269 3.15464C31.2926 3.1385 30.9589 2.93934 31.0019 1.99741C31.0934 -0.0963902 31.0288 -0.0479476 33.1442 0.0543201C36.0722 0.210413 39.0003 0.264238 41.923 0.355741Z" fill="white"/>
<path d="M95.9304 0.279804C102.319 0.279804 108.714 0.301334 115.103 0.269039C117.46 0.258274 119.818 0.177536 122.17 0.0106787C123.037 -0.0539114 123.155 0.172154 123.069 0.947235C122.552 5.57619 122.321 10.2267 122.165 14.8825C121.982 20.3189 122.106 25.7444 122.515 31.1646C122.574 31.9182 122.402 32.1927 121.643 32.0743C121.32 32.0258 120.986 32.0635 120.658 32.0635C118.93 32.0635 118.973 32.0581 118.779 30.2873C118.235 25.2708 117.498 20.292 116.142 15.4154C114.279 8.70881 109.833 5.05409 103.03 4.07447C100.452 3.70308 97.8681 3.50931 95.2683 3.5416C87.8566 3.63849 80.4503 3.38551 73.0439 3.3586C71.7629 3.35321 70.4711 3.31015 69.2008 3.51469C68.7595 3.58466 68.5818 3.52007 68.5657 2.99259C68.4796 0.457426 68.458 0.457427 71.004 0.457427C79.3145 0.457427 87.6198 0.457427 95.9304 0.457427C95.9304 0.398219 95.9304 0.339012 95.9304 0.279804Z" fill="white"/>
<path d="M78.1796 53.588C80.8978 53.588 83.6213 53.6795 86.3341 53.5611C89.1653 53.4373 91.8673 52.7375 93.7942 50.45C95.775 48.0978 96.8999 45.3151 97.422 42.2955C97.8742 39.6527 98.2886 36.9991 98.7085 34.3455C98.7946 33.7911 98.9238 33.4251 99.645 33.5112C100.528 33.6135 101.717 33.2367 102.234 33.6888C102.767 34.1517 102.304 35.3628 102.234 36.2348C101.653 43.5442 101.938 50.8591 101.97 58.1739C101.997 64.1108 102.358 70.0423 102.826 75.9577C102.885 76.6789 102.735 76.9911 101.949 76.8942C101.33 76.8189 100.695 76.8404 100.07 76.8889C99.4459 76.9427 99.2898 76.6951 99.209 76.0976C98.7354 72.5506 98.3102 68.9981 97.4436 65.5156C97.1852 64.4714 96.7439 63.4972 96.2594 62.5391C94.3002 58.6583 90.9577 57.0166 86.8077 56.8336C81.1992 56.5807 75.5798 56.7637 69.9659 56.7529C69.1801 56.7529 68.9594 56.5753 68.9809 55.7733C69.0401 53.6203 68.9971 53.6203 71.1877 53.6203C73.5184 53.6203 75.849 53.6203 78.1796 53.6203C78.1796 53.6041 78.1796 53.5934 78.1796 53.588Z" fill="white"/>
</g>
<defs>
<clipPath id="clip0_2_100">
<rect width="123.103" height="108" fill="white"/>
</clipPath>
</defs>
</svg>
